Coordinates
version=1
nRows=21
nColumns=12
inDegrees=yes

Units are S.I. units (second, meters, Newtons, ...)
Angles are in degrees

endheader
time	SC_y	SC_z	SC_x	AC_y	AC_z	AC_x	GH_y	GH_z	GH_yy	EL_x	PS_y
       0.0              -41.53           25.8          54.23          35.36         -4.343          12.52         -44.05          78.49         -177.9          63.76          150.0
 0.0005416              -41.53           25.8          54.22          35.36         -4.343          12.52         -44.04          78.49         -177.9          63.75          150.0
  0.001083              -41.54           25.8          54.22          35.36         -4.342          12.52         -44.04          78.49         -177.9          63.75          150.0
  0.001625              -41.54           25.8          54.22          35.37         -4.342          12.52         -44.03          78.49         -177.9          63.74          150.0
  0.002166              -41.54           25.8          54.21          35.37         -4.341          12.52         -44.03           78.5         -177.8          63.73          150.0
  0.002708              -41.55           25.8          54.21          35.37         -4.341          12.52         -44.02           78.5         -177.8          63.72          149.9
   0.00325              -41.55           25.8           54.2          35.37          -4.34          12.52         -44.01           78.5         -177.8           63.7          149.9
  0.003791              -41.55           25.8           54.2          35.38          -4.34          12.52          -44.0           78.5         -177.8          63.69          149.9
  0.004333              -41.56           25.8          54.19          35.38         -4.339          12.52         -43.99           78.5         -177.7          63.68          149.9
  0.004874              -41.56           25.8          54.19          35.38         -4.338          12.52         -43.98          78.51         -177.7          63.66          149.9
  0.005416              -41.57           25.8          54.18          35.38         -4.337          12.52         -43.97          78.51         -177.7          63.65          149.9
  0.005958              -41.57           25.8          54.18          35.39         -4.337          12.52         -43.96          78.51         -177.6          63.63          149.8
  0.006499              -41.58           25.8          54.17          35.39         -4.336          12.53         -43.95          78.51         -177.6          63.62          149.8
  0.007041              -41.58           25.8          54.16          35.39         -4.335          12.53         -43.94          78.52         -177.5           63.6          149.8
  0.007583              -41.59           25.8          54.16           35.4         -4.334          12.53         -43.92          78.52         -177.5          63.58          149.8
  0.008124               -41.6           25.8          54.15           35.4         -4.333          12.53         -43.91          78.52         -177.4          63.55          149.7
  0.008666               -41.6           25.8          54.14          35.41         -4.332          12.53         -43.89          78.53         -177.4          63.53          149.7
  0.009207              -41.61           25.8          54.13          35.41          -4.33          12.53         -43.87          78.53         -177.3           63.5          149.7
  0.009749              -41.62           25.8          54.12          35.42         -4.329          12.53         -43.85          78.53         -177.2          63.47          149.7
   0.01029              -41.63           25.8          54.11          35.42         -4.327          12.53         -43.83          78.54         -177.2          63.44          149.6
   0.01083              -41.64           25.8          54.09          35.43         -4.326          12.54         -43.81          78.55         -177.1          63.41          149.6
